<svg version="1.1" id="Layer_1" xmlns="http://www.w3.org/2000/svg" xmlns:xlink="http://www.w3.org/1999/xlink" x="0px" y="0px"
	 width="100%" viewBox="0 0 144 160" enable-background="new 0 0 144 160" xml:space="preserve">
<path fill="#000000" opacity="1.000000" stroke="none" 
	d="
M117.961617,96.118683 
	C119.976524,99.561722 121.776665,102.711060 123.676102,106.034126 
	C127.718681,105.184380 129.338455,102.338501 129.816696,98.636513 
	C130.344803,94.548553 128.519104,91.514641 125.106972,89.446648 
	C123.845604,88.682159 122.362885,88.276192 120.968697,87.738937 
	C117.908310,86.559608 118.603874,83.972267 118.995697,81.792145 
	C119.446159,79.285759 121.612854,79.667610 123.427155,79.948158 
	C130.928940,81.108162 136.589859,86.980637 138.067169,95.060013 
	C139.288086,101.737175 135.534546,109.695518 128.906372,113.005859 
	C125.668709,114.622849 124.395638,116.563400 123.921310,120.084923 
	C122.984528,127.039825 119.814453,133.220505 114.524033,137.821335 
	C111.287262,140.636185 110.150337,143.553940 110.264778,147.714478 
	C110.518013,156.920654 110.096573,157.160858 100.722824,157.161041 
	C98.391731,157.161072 96.056587,157.213943 93.730675,157.096588 
	C91.390869,156.978516 89.196541,155.998734 88.910439,153.555344 
	C88.503647,150.081268 86.291588,150.051956 83.918396,150.420029 
	C78.105186,151.321625 72.328445,151.337021 66.531410,150.364594 
	C64.077072,149.952881 62.219902,150.540329 61.987122,153.470306 
	C61.962212,153.783875 61.812737,154.155624 61.595028,154.375793 
	C56.430771,159.598129 49.987637,156.884109 44.148090,156.774643 
	C40.080112,156.698395 39.493786,152.503342 40.134178,149.424194 
	C42.087170,140.033890 34.018818,136.195770 29.952621,130.181229 
	C28.982286,128.745972 26.830130,129.282166 25.200558,129.339615 
	C20.932861,129.490097 19.090921,127.252548 19.055605,123.260277 
	C19.005535,117.599686 18.998798,111.937233 19.089312,106.277420 
	C19.149260,102.528915 20.829105,100.198822 24.949753,100.674767 
	C28.165539,101.046196 30.436056,99.871841 31.829952,96.963951 
	C31.901052,96.815628 31.986181,96.644852 32.114452,96.557266 
	C40.901306,90.556847 40.304970,81.542412 40.042583,72.506752 
	C39.844669,65.691277 41.296822,64.734657 48.082195,66.096146 
	C54.356331,67.355064 59.814476,70.116241 63.543667,75.368767 
	C65.570107,78.222984 67.873787,78.893066 71.152702,78.794838 
	C86.142067,78.345802 100.293289,81.048805 112.526154,90.499001 
	C114.529877,92.046936 116.252403,93.808693 117.961617,96.118683 
M66.254852,142.171387 
	C74.407112,143.273346 82.506256,143.004776 90.533966,141.170258 
	C93.670143,140.453552 95.948761,141.271118 96.281403,144.732040 
	C96.517372,147.187332 96.894478,149.063187 99.977654,148.686325 
	C102.853394,148.334854 102.861305,146.124008 102.591881,144.177780 
	C101.876251,139.008499 103.939018,135.642639 107.980087,132.350372 
	C114.895050,126.716721 117.708817,119.173256 115.765091,110.100311 
	C113.593788,99.965111 106.181404,94.939110 97.576233,91.117897 
	C87.697784,86.731270 77.216637,86.544724 66.698395,87.403801 
	C62.900188,87.714027 60.551769,86.746162 58.799103,83.098816 
	C56.859497,79.062469 53.906620,75.654594 48.283939,75.119240 
	C48.283939,78.896347 48.069469,82.379433 48.337124,85.825058 
	C48.687695,90.338097 47.654682,93.842171 43.525688,96.419273 
	C40.561993,98.269058 38.356731,101.133698 36.880199,104.378632 
	C35.754894,106.851669 34.273540,108.599258 31.259401,108.374222 
	C27.715740,108.109657 26.876852,110.373878 27.363842,113.172516 
	C27.853802,115.988228 25.103764,120.509605 30.723433,120.949455 
	C33.986584,121.204865 35.840614,122.768333 37.148453,125.590408 
	C38.280609,128.033386 40.035168,130.211029 42.240528,131.660141 
	C47.067123,134.831619 49.100231,139.029694 48.347099,144.751907 
	C48.107624,146.571426 48.230721,148.559341 50.940712,148.660812 
	C53.236561,148.746780 53.586723,147.268951 53.822365,145.450684 
	C54.389774,141.072418 56.996223,140.012924 60.978577,141.172485 
	C62.404663,141.587723 63.916634,141.708008 66.254852,142.171387 
z"/>
<path fill="#000000" opacity="1.000000" stroke="none" 
	d="
M73.836632,68.585930 
	C58.654987,64.717422 50.274822,50.788715 53.825459,35.904984 
	C56.980759,22.678442 71.296997,14.060678 85.283188,16.968767 
	C99.135651,19.849051 108.233101,34.269104 105.210632,48.555073 
	C102.263397,62.485443 88.666389,71.329041 73.836632,68.585930 
M89.987129,60.560436 
	C90.772354,59.943218 91.821907,59.240849 91.486168,58.197594 
	C90.227264,54.285721 88.840622,50.411263 87.370354,46.573158 
	C86.868172,45.262215 85.529663,45.365780 84.357971,45.518871 
	C82.972008,45.699951 82.370407,46.629421 82.363571,47.926140 
	C82.337715,52.830830 82.353172,57.735733 82.353172,62.564583 
	C85.385635,63.299458 87.357903,62.014893 89.987129,60.560436 
M82.288017,27.833258 
	C82.300728,30.824873 82.318077,33.816475 82.324554,36.808105 
	C82.329086,38.899826 83.598175,40.369961 85.402054,39.579529 
	C89.839241,37.635204 88.461128,32.337749 90.805466,29.066610 
	C91.760597,27.733894 91.839241,26.252724 90.243591,25.154459 
	C89.833557,24.872236 89.440430,24.533951 88.987167,24.351494 
	C87.047989,23.570879 85.214615,22.224356 83.017868,22.967985 
	C82.064659,24.277391 82.400024,25.652327 82.288017,27.833258 
M70.210403,61.528931 
	C72.042503,62.209282 73.784630,63.332478 76.581619,62.548820 
	C76.581619,57.795464 76.599144,52.883404 76.567581,47.971668 
	C76.560844,46.925140 76.172943,45.987080 75.012741,45.712143 
	C73.906609,45.450020 72.936394,45.834442 72.624702,46.931686 
	C71.488518,50.931370 70.035057,54.785515 68.108719,58.482643 
	C67.416237,59.811672 68.614380,60.571022 70.210403,61.528931 
M72.676796,38.706375 
	C74.385628,40.251686 76.177582,39.854477 76.367966,37.787971 
	C76.829201,32.781719 77.147560,27.696342 75.998505,22.034090 
	C72.767097,23.388950 69.668892,23.385323 67.848915,26.349140 
	C69.945892,30.125408 71.231796,34.054932 72.676796,38.706375 
M59.714405,49.687466 
	C60.699043,51.400986 60.856144,53.839127 63.385452,54.237068 
	C64.964165,52.995354 65.183899,51.308533 65.705696,49.795090 
	C66.351089,47.923161 67.328064,45.770645 64.049561,45.470638 
	C61.554111,45.242290 58.776649,44.938015 59.714405,49.687466 
M62.708572,31.074068 
	C61.310196,31.896521 60.911995,33.394722 60.347267,34.734650 
	C59.735275,36.186714 58.455299,37.917400 60.207092,39.202560 
	C61.714325,40.308308 63.818909,40.213337 65.384628,39.279732 
	C67.343887,38.111465 65.941200,36.294430 65.540466,34.829285 
	C65.156792,33.426537 64.628677,31.988659 62.708572,31.074068 
M93.810936,48.861095 
	C94.579247,50.546070 94.718933,52.624866 96.501816,53.742470 
	C98.016472,52.581543 98.406059,51.099384 98.945953,49.731377 
	C99.546631,48.209354 100.538116,46.252144 98.143219,45.637890 
	C96.207573,45.141430 93.536209,44.601685 93.810936,48.861095 
M98.527939,34.341801 
	C97.880379,33.486912 97.817253,31.997707 95.969109,32.199345 
	C94.461754,34.097000 93.785278,36.365124 93.621155,38.810398 
	C95.502281,40.124935 97.364098,40.349464 98.893112,39.125713 
	C100.362404,37.949753 99.203796,36.370483 98.527939,34.341801 
z"/>
<path fill="#000000" opacity="1.000000" stroke="none" 
	d="
M87.720154,102.376007 
	C81.612625,101.106834 75.939606,99.692635 70.050140,101.016571 
	C66.701965,101.769234 64.791893,100.835609 64.329811,96.979675 
	C63.832905,92.833122 66.825806,93.107841 69.045273,92.897789 
	C76.217468,92.218994 83.336281,92.753334 90.299622,94.765785 
	C92.988503,95.542885 94.628387,96.632309 93.733002,100.080063 
	C92.771904,103.780846 90.733978,103.416428 87.720154,102.376007 
z"/>
<path fill="#000000" opacity="1.000000" stroke="none" 
	d="
M47.257286,104.050201 
	C48.204815,100.918457 50.158012,100.186745 52.709869,101.094810 
	C54.202507,101.625961 55.124710,102.893639 54.949787,104.545502 
	C54.736980,106.555145 53.522663,107.898056 51.492702,108.128517 
	C48.844776,108.429146 47.630005,106.838097 47.257286,104.050201 
z"/>
</svg>